<svg xmlns="http://www.w3.org/2000/svg" version="1.1" xmlns:xlink="http://www.w3.org/1999/xlink" xmlns:svgjs="http://svgjs.dev/svgjs" width="1500" height="1500" viewBox="0 0 1500 1500"><rect width="1500" height="1500" fill="#fafafa"></rect><g transform="matrix(0.6666666666666666,0,0,0.6666666666666666,250,246.54807104496882)"><svg viewBox="0 0 280 281" data-background-color="#fafafa" preserveAspectRatio="xMidYMid meet" height="1505" width="1500" xmlns="http://www.w3.org/2000/svg" xmlns:xlink="http://www.w3.org/1999/xlink"><g id="tight-bounds" transform="matrix(1,0,0,1,0,0.49999206282103614)"><svg viewBox="0 0 280 280" height="280" width="280"><g><svg viewBox="0 0 280 280" height="280" width="280"><g><svg viewBox="0 0 280 280" height="280" width="280"><g id="textblocktransform"><svg viewBox="0 0 280 280" height="280" width="280" id="textblock"><g><svg viewBox="0 0 280 280" height="280" width="280"><g transform="matrix(1,0,0,1,57.50420886156945,57.50420886156945)"><svg viewBox="0 0 164.9915822768611 164.9915822768611" height="164.9915822768611" width="164.9915822768611"><g id="icon-0"><circle r="82" cx="82.49579113843055" cy="82.49579113843055" fill="#e77917" data-fill-palette-color="accent"></circle><svg xmlns="http://www.w3.org/2000/svg" xmlns:xlink="http://www.w3.org/1999/xlink" version="1.1" x="24.74873734152917" y="24.748737341529164" viewBox="0.6 0.7 46.9 46.9" enable-background="new 0 0 48 48" xml:space="preserve" height="115.49410759380275" width="115.49410759380275" class="icon-jxe-0" data-fill-palette-color="quaternary" id="jxe-0"><path fill="#fafafa" d="M42 21.5C42.2 21.5 42.5 21.6 42.7 21.6 45.3 21.6 47.5 19.4 47.5 16.8S45.4 12 42.7 12C40.1 12 37.9 14.2 37.9 16.8 37.9 17.7 38.2 18.6 38.6 19.3 38.5 19.4 38.4 19.5 38.4 19.6L35.2 24.1C35.1 24.2 35 24.4 35 24.6 34 24.3 32.9 24.1 31.8 24.1 29.5 24.1 27.3 24.8 25.5 26L17.2 13.7C17.2 13.6 17.1 13.6 17 13.5 18.2 12.1 18.9 10.4 18.9 8.4 18.9 4.1 15.5 0.7 11.3 0.7S3.6 4 3.6 8.2 7 15.9 11.2 15.9C12 15.9 12.7 15.8 13.5 15.6 13.5 15.7 13.6 15.8 13.6 15.9L22 28.3C22.1 28.5 22.2 28.6 22.4 28.7 21 30.7 20.1 33.1 20.1 35.7V35.9H19.7L7.8 38.3C7.7 38.3 7.5 38.4 7.4 38.4 6.7 37.5 5.6 36.9 4.4 36.9 2.3 36.9 0.6 38.6 0.6 40.8 0.6 42.9 2.3 44.7 4.4 44.7 5.9 44.7 7.3 43.8 7.9 42.4H8.6L20.5 40.1C20.6 40.1 20.8 40 20.9 40 22.6 44.4 26.8 47.6 31.7 47.6 38.1 47.6 43.3 42.3 43.3 35.8 43.3 31.9 41.5 28.5 38.6 26.4L41.7 22C41.9 21.8 42 21.7 42 21.5M31.1 33.8C31.3 34.1 31.6 34.4 32.1 34.7 33.2 35.3 34.1 35.8 34.6 36.4S35.4 37.8 35.4 38.9C35.4 39.9 35.1 40.8 34.6 41.4S33.3 42.4 32.4 42.5V44.3H31.1V42.5C30.1 42.4 29.4 42 28.7 41.3 28.1 40.6 27.8 39.6 27.8 38.2H30.3C30.3 39 30.4 39.6 30.7 40S31.3 40.5 31.7 40.5 32.4 40.4 32.6 40.1 32.9 39.4 32.9 38.9 32.8 38 32.6 37.7 32.1 37.1 31.6 36.8C30.5 36.3 29.6 35.7 29.1 35.1S28.3 33.7 28.3 32.6C28.3 31.6 28.6 30.8 29.1 30.1S30.4 29.1 31.3 28.9V27H32.6V28.9C33.5 29.1 34.2 29.5 34.7 30.2S35.5 31.9 35.5 33H33C33 32.3 32.9 31.7 32.7 31.4 32.5 31 32.2 30.8 31.9 30.8S31.3 31 31.1 31.3 30.8 32 30.8 32.5C30.8 33.1 30.9 33.5 31.1 33.8" data-fill-palette-color="quaternary"></path></svg></g></svg></g><g id="text-0"><path d="M37.412 98.029v0c-0.313 0.861-0.823 1.782-1.531 2.761-0.708 0.979-1.465 1.994-2.27 3.043-0.801 1.059-1.498 2.144-2.093 3.257v0c0.471 1.096 0.741 2.056 0.81 2.878 0.066 0.829 0 1.519-0.199 2.068v0c-0.254 0.699-0.674 1.214-1.26 1.545-0.58 0.333-1.231 0.503-1.954 0.51-0.725 0.012-1.424-0.104-2.099-0.348v0c-0.693-0.251-1.305-0.618-1.836-1.101-0.534-0.476-0.904-1.052-1.111-1.727-0.203-0.667-0.156-1.409 0.141-2.227v0c0.061-0.169 0.139-0.345 0.234-0.53 0.095-0.184 0.203-0.375 0.324-0.571v0c-1.227-0.961-2.622-1.923-4.187-2.885-1.565-0.963-3.128-1.841-4.691-2.635-1.554-0.797-2.931-1.413-4.129-1.848v0c-0.481-0.174-0.833-0.274-1.057-0.298-0.222-0.031-0.46-0.026-0.716 0.016v0l-0.126-0.004c-0.664-0.566-1.088-1.264-1.274-2.094-0.188-0.824-0.148-1.608 0.122-2.35v0c0.297-0.818 0.835-1.385 1.613-1.703 0.777-0.311 1.849-0.219 3.216 0.277v0c0.868 0.315 1.905 0.804 3.112 1.468 1.211 0.672 2.49 1.458 3.838 2.357 1.344 0.89 2.658 1.815 3.941 2.775 1.286 0.954 2.415 1.851 3.389 2.691v0c0.62-0.969 1.279-1.93 1.978-2.884 0.702-0.96 1.239-1.955 1.613-2.985v0c0.288-0.793 0.42-1.606 0.398-2.441-0.022-0.834-0.299-1.715-0.831-2.643v0c0.486-0.367 1.059-0.562 1.716-0.585 0.656-0.016 1.308 0.093 1.958 0.329v0c0.724 0.263 1.372 0.667 1.943 1.214 0.578 0.549 0.981 1.218 1.211 2.007 0.229 0.789 0.165 1.677-0.193 2.663z" fill="#130912" data-fill-palette-color="primary"></path><path d="M47.158 80.064v0c-1.023 1.552-2.188 2.633-3.496 3.242-1.302 0.613-2.64 0.833-4.013 0.66-1.367-0.169-2.647-0.647-3.839-1.432v0c-1.131-0.745-2.123-1.713-2.977-2.904-0.857-1.185-1.477-2.508-1.858-3.968-0.382-1.46-0.463-2.984-0.243-4.573 0.216-1.583 0.823-3.131 1.82-4.645v0c1.235-1.874 2.558-2.966 3.972-3.275 1.413-0.31 2.715-0.072 3.906 0.714v0c1.026 0.676 1.792 1.57 2.299 2.683 0.501 1.11 0.719 2.287 0.655 3.533-0.067 1.236-0.453 2.389-1.159 3.459v0c-0.365 0.554-0.822 1.061-1.37 1.518-0.552 0.463-1.191 0.854-1.916 1.171v0c1.389 0.764 2.6 1.014 3.634 0.748 1.034-0.265 1.853-0.858 2.46-1.778v0c0.42-0.638 0.72-1.358 0.9-2.163 0.171-0.802 0.238-1.604 0.202-2.407-0.036-0.803-0.179-1.502-0.431-2.097v0l0.306-0.12c1.109 0.731 1.903 1.584 2.381 2.559 0.473 0.972 0.711 1.991 0.715 3.059-0.005 1.07-0.185 2.121-0.538 3.152-0.363 1.033-0.833 1.988-1.41 2.864zM39.005 73.63v0c0.449-0.682 0.618-1.366 0.506-2.052-0.112-0.686-0.365-1.31-0.759-1.872-0.39-0.567-0.787-0.984-1.192-1.25v0c-0.493-0.325-0.995-0.457-1.505-0.395-0.515 0.058-0.936 0.334-1.26 0.827v0c-0.252 0.383-0.391 0.895-0.417 1.538-0.022 0.637 0.181 1.36 0.611 2.168 0.433 0.802 1.214 1.651 2.342 2.545v0c0.765-0.474 1.323-0.977 1.674-1.509z" fill="#130912" data-fill-palette-color="primary"></path><path d="M70.764 53.968v0c-0.656 0.611-1.374 0.975-2.153 1.092-0.784 0.113-1.59 0.07-2.42-0.129-0.834-0.204-1.669-0.501-2.505-0.892-0.836-0.392-1.635-0.773-2.397-1.143v0c-1.209-0.616-2.28-1.148-3.213-1.595-0.933-0.437-1.794-0.743-2.582-0.917v0c0.971 1.754 1.955 3.387 2.954 4.898 1.003 1.506 2.227 3.089 3.671 4.747v0c-0.046 0.633-0.199 1.228-0.459 1.787-0.269 0.559-0.617 1.037-1.045 1.436v0c-0.656 0.611-1.449 0.923-2.38 0.936-0.926 0.009-1.893-0.528-2.902-1.612v0c-0.697-0.748-1.368-1.693-2.013-2.834-0.65-1.146-1.271-2.364-1.863-3.653-0.597-1.294-1.162-2.569-1.695-3.824-0.533-1.245-1.041-2.351-1.524-3.317-0.478-0.961-0.927-1.668-1.347-2.12v0c-0.434-0.467-0.809-0.553-1.126-0.259v0c-0.355 0.33-0.536 0.998-0.543 2.003-0.012 1 0.163 2.221 0.524 3.662v0l-0.215 0.105c-1.045-1.123-1.734-2.35-2.067-3.682-0.333-1.332-0.367-2.689-0.101-4.069 0.27-1.386 0.805-2.745 1.604-4.08 0.799-1.334 1.797-2.557 2.993-3.67v0c1.589-1.479 3.11-2.433 4.563-2.86 1.448-0.423 2.77-0.469 3.965-0.14 1.205 0.33 2.217 0.934 3.036 1.814v0c0.832 0.894 1.418 1.986 1.757 3.277 0.344 1.285 0.365 2.599 0.063 3.941-0.297 1.347-0.974 2.598-2.03 3.754v0c0.67-0.07 1.36-0.005 2.072 0.194 0.702 0.199 1.473 0.447 2.313 0.745v0c0.751 0.281 1.526 0.494 2.324 0.64 0.798 0.146 1.506-0.068 2.123-0.643v0c0.316-0.294 0.501-0.616 0.556-0.967 0.064-0.35-0.003-0.782-0.2-1.296v0l0.242-0.076c0.355 0.196 0.669 0.411 0.942 0.646 0.269 0.24 0.507 0.471 0.715 0.695v0c1.095 1.176 1.685 2.463 1.772 3.862 0.086 1.408-0.384 2.589-1.409 3.544zM54.492 46.501v0c0.671-0.624 1.111-1.32 1.322-2.088 0.206-0.772 0.233-1.514 0.079-2.224-0.153-0.71-0.447-1.299-0.881-1.765v0c-0.538-0.578-1.235-0.883-2.088-0.913-0.845-0.03-1.762 0.416-2.754 1.339v0c-0.151 0.14-0.299 0.288-0.446 0.442-0.151 0.159-0.293 0.318-0.426 0.478v0c0.137 0.108 0.262 0.223 0.376 0.344 0.113 0.121 0.17 0.182 0.169 0.183v0c0.801 0.86 1.545 1.723 2.233 2.588 0.678 0.865 1.215 1.622 1.61 2.27v0c0.149-0.103 0.287-0.208 0.413-0.316 0.131-0.103 0.261-0.216 0.393-0.338z" fill="#130912" data-fill-palette-color="primary"></path><path d="M88.28 42.534v0c-1.69 0.91-3.265 1.324-4.726 1.244-1.47-0.083-2.767-0.539-3.891-1.366-1.127-0.833-2.029-1.878-2.706-3.135v0c-0.642-1.193-1.065-2.503-1.269-3.932-0.204-1.429-0.147-2.858 0.169-4.287 0.316-1.43 0.922-2.77 1.816-4.021 0.895-1.251 2.129-2.3 3.702-3.147v0c1.684-0.907 3.256-1.312 4.717-1.217 1.459 0.104 2.756 0.575 3.893 1.411 1.131 0.839 2.04 1.899 2.73 3.179v0c0.63 1.169 1.049 2.459 1.258 3.87 0.209 1.411 0.157 2.834-0.156 4.269-0.322 1.433-0.931 2.767-1.826 4.003-0.901 1.239-2.138 2.282-3.711 3.129zM87.648 39.176v0c0.608-0.327 0.944-0.915 1.007-1.764 0.067-0.843-0.062-1.81-0.386-2.903-0.327-1.083-0.763-2.131-1.307-3.142v0c-0.485-0.9-1.026-1.702-1.624-2.406-0.595-0.713-1.199-1.232-1.812-1.558-0.61-0.32-1.184-0.336-1.721-0.046v0c-0.585 0.315-0.914 0.9-0.99 1.755-0.078 0.849 0.042 1.814 0.36 2.894 0.315 1.075 0.751 2.13 1.308 3.164v0c0.485 0.9 1.026 1.702 1.623 2.406 0.601 0.71 1.206 1.225 1.816 1.545 0.607 0.329 1.182 0.347 1.726 0.055z" fill="#130912" data-fill-palette-color="primary"></path><path d="M106.64 12.555v0c-0.973 0.293-1.86 0.235-2.664-0.174-0.81-0.408-1.35-1.063-1.622-1.966v0c-0.295-0.979-0.181-1.936 0.341-2.87 0.518-0.926 1.305-1.548 2.36-1.866v0c0.973-0.293 1.866-0.23 2.679 0.19 0.807 0.422 1.347 1.085 1.619 1.988v0c0.295 0.979 0.179 1.929-0.347 2.851-0.522 0.913-1.311 1.529-2.366 1.847zM110.035 33.095v0c-0.954 0.288-1.909 0.212-2.867-0.227-0.96-0.446-1.665-1.416-2.115-2.91v0c-0.257-0.852-0.384-1.687-0.382-2.506 0.011-0.815 0.062-1.624 0.152-2.428 0.092-0.798 0.155-1.569 0.187-2.314 0.026-0.743-0.06-1.442-0.258-2.096v0c-0.178-0.591-0.404-0.984-0.678-1.179-0.269-0.203-0.541-0.264-0.813-0.181v0c-0.413 0.125-0.735 0.516-0.967 1.175v0l-0.301-0.065c-0.193-1.01-0.135-1.943 0.176-2.799 0.319-0.852 0.803-1.591 1.453-2.217 0.652-0.62 1.36-1.045 2.123-1.275v0c0.928-0.28 1.826-0.224 2.692 0.166 0.86 0.392 1.494 1.263 1.9 2.611v0c0.242 0.801 0.383 1.684 0.425 2.649 0.033 0.961 0.03 1.929-0.009 2.905-0.041 0.969-0.065 1.868-0.071 2.695 0.001 0.832 0.082 1.515 0.243 2.048v0c0.14 0.464 0.332 0.767 0.575 0.909 0.244 0.141 0.474 0.18 0.69 0.114v0c0.222-0.067 0.418-0.199 0.588-0.396 0.163-0.195 0.27-0.393 0.32-0.595v0l0.278-0.011c0.274 0.909 0.273 1.769-0.003 2.58-0.274 0.818-0.709 1.524-1.305 2.121-0.599 0.59-1.277 0.999-2.033 1.226z" fill="#130912" data-fill-palette-color="primary"></path><path d="M127.739 29.521v0c-0.913 0.08-1.773-0.227-2.581-0.922-0.801-0.696-1.279-1.923-1.434-3.683v0c-0.125-1.422-0.083-2.835 0.126-4.24 0.209-1.405 0.46-2.83 0.753-4.276 0.299-1.446 0.527-2.939 0.685-4.479 0.157-1.54 0.113-3.146-0.135-4.817v0c-0.679 0.16-1.338 0.398-1.977 0.714-0.639 0.31-1.255 0.734-1.847 1.273v0c-0.141-1.601-0.117-2.916 0.072-3.946 0.189-1.03 0.67-1.809 1.443-2.337 0.773-0.528 1.964-0.863 3.571-1.004v0c0.86-0.076 1.831-0.098 2.914-0.067 1.083 0.031 2.195 0.06 3.336 0.085 1.143 0.033 2.223 0.004 3.242-0.086v0c0.992-0.087 1.873-0.262 2.644-0.523 0.77-0.261 1.351-0.666 1.742-1.213v0c0.532 0.286 0.959 0.705 1.281 1.257 0.315 0.545 0.501 1.149 0.559 1.81v0c0.061 0.688-0.039 1.37-0.299 2.046-0.26 0.676-0.703 1.255-1.327 1.737-0.625 0.475-1.469 0.759-2.534 0.853v0c-1.124 0.099-2.364 0.028-3.718-0.212-1.354-0.241-2.74-0.425-4.158-0.553v0c0.175 0.551 0.32 1.102 0.436 1.651 0.109 0.557 0.189 1.126 0.24 1.709v0c0.056 0.635 0.089 1.269 0.098 1.901 0.002 0.626-0.021 1.275-0.069 1.945v0c0.511-0.325 1.14-0.637 1.888-0.936 0.74-0.299 1.504-0.559 2.29-0.782 0.787-0.223 1.498-0.362 2.133-0.418v0c0.41-0.036 0.771-0.028 1.082 0.025v0c0.305 0.506 0.491 1.143 0.558 1.91v0c0.107 1.217-0.09 2.491-0.593 3.822v0l-0.258 0.132c-0.984-0.426-2.103-0.724-3.358-0.893-1.261-0.169-2.571-0.247-3.93-0.234v0c-0.123 1.477-0.234 2.977-0.333 4.499-0.1 1.515-0.08 3.063 0.059 4.644v0c0.029 0.331 0.066 0.674 0.111 1.03 0.045 0.356 0.096 0.708 0.153 1.056v0c-0.766 0.914-1.721 1.421-2.865 1.522z" fill="#130912" data-fill-palette-color="primary"></path><path d="M159.643 8.626v0c-1.011-0.102-1.809-0.496-2.393-1.182-0.592-0.687-0.84-1.499-0.746-2.437v0c0.102-1.017 0.574-1.857 1.415-2.52 0.834-0.657 1.799-0.93 2.895-0.82v0c1.011 0.102 1.811 0.503 2.402 1.203 0.584 0.699 0.828 1.518 0.733 2.456v0c-0.102 1.017-0.573 1.851-1.412 2.5-0.832 0.644-1.797 0.91-2.894 0.8zM154.91 28.9v0c-0.991-0.1-1.845-0.536-2.561-1.309-0.716-0.779-0.995-1.945-0.839-3.498v0c0.089-0.885 0.292-1.706 0.608-2.461 0.322-0.748 0.679-1.476 1.071-2.185 0.391-0.701 0.744-1.39 1.059-2.065 0.308-0.676 0.497-1.355 0.565-2.035v0c0.062-0.614 0.004-1.064-0.175-1.349-0.171-0.291-0.398-0.45-0.682-0.479v0c-0.429-0.043-0.877 0.195-1.343 0.715v0l-0.253-0.175c0.208-1.007 0.62-1.846 1.234-2.518 0.621-0.665 1.351-1.162 2.192-1.491 0.84-0.323 1.656-0.444 2.449-0.365v0c0.965 0.097 1.772 0.492 2.424 1.185 0.644 0.692 0.896 1.738 0.755 3.139v0c-0.084 0.832-0.291 1.702-0.623 2.61-0.338 0.9-0.711 1.794-1.121 2.68-0.409 0.88-0.775 1.7-1.098 2.462-0.318 0.769-0.504 1.431-0.561 1.985v0c-0.049 0.482 0.013 0.835 0.184 1.06 0.171 0.224 0.369 0.347 0.594 0.37v0c0.231 0.023 0.463-0.023 0.694-0.14 0.225-0.117 0.4-0.26 0.524-0.428v0l0.26 0.096c-0.095 0.945-0.425 1.739-0.99 2.383-0.566 0.65-1.239 1.137-2.019 1.458-0.779 0.315-1.562 0.433-2.348 0.355z" fill="#130912" data-fill-palette-color="primary"></path><path d="M172.843 32.404v0c-0.9-0.282-1.601-0.898-2.104-1.848-0.511-0.946-0.564-2.066-0.159-3.358v0c0.198-0.634 0.509-1.326 0.933-2.078 0.423-0.751 0.869-1.509 1.338-2.273 0.469-0.765 0.9-1.485 1.293-2.163 0.399-0.675 0.671-1.244 0.816-1.706v0c0.153-0.488 0.179-0.904 0.078-1.249-0.109-0.34-0.322-0.56-0.639-0.659v0c-0.418-0.131-0.944-0.028-1.579 0.309v0l-0.184-0.214c0.104-0.399 0.334-0.835 0.692-1.307 0.365-0.477 0.829-0.902 1.391-1.276 0.556-0.376 1.204-0.635 1.945-0.779 0.739-0.137 1.549-0.068 2.429 0.207v0c1.286 0.403 2.124 1.072 2.512 2.008 0.395 0.938 0.425 1.942 0.09 3.013v0c-0.123 0.393-0.28 0.761-0.471 1.105v0c0.751-0.6 1.624-1.165 2.618-1.695 0.994-0.531 2.028-0.91 3.101-1.138 1.077-0.219 2.104-0.176 3.08 0.13v0c1.141 0.357 1.806 0.965 1.996 1.825 0.184 0.858 0.104 1.835-0.24 2.931v0c-0.321 1.026-0.777 2.091-1.365 3.194-0.58 1.098-1.151 2.155-1.712 3.168-0.555 1.016-0.947 1.892-1.178 2.627v0c-0.306 0.976-0.18 1.551 0.378 1.725v0c0.291 0.091 0.577 0.08 0.857-0.034 0.273-0.116 0.474-0.248 0.604-0.396v0l0.22 0.195c-0.282 0.9-0.78 1.613-1.494 2.141-0.713 0.521-1.506 0.854-2.379 0.998-0.873 0.144-1.699 0.094-2.479-0.15v0c-0.95-0.298-1.69-0.891-2.219-1.78-0.522-0.887-0.55-2.075-0.084-3.564v0c0.274-0.874 0.685-1.789 1.235-2.745 0.554-0.947 1.09-1.861 1.61-2.741 0.513-0.883 0.865-1.629 1.055-2.237v0c0.115-0.367 0.139-0.677 0.072-0.927-0.068-0.251-0.272-0.43-0.615-0.537v0c-0.558-0.175-1.253-0.11-2.085 0.192-0.832 0.303-1.62 0.808-2.363 1.514-0.741 0.7-1.272 1.564-1.594 2.591v0c-0.206 0.659-0.326 1.317-0.357 1.975-0.032 0.658-0.158 1.338-0.379 2.042v0c-0.413 1.318-1.068 2.212-1.967 2.682-0.892 0.472-1.791 0.566-2.697 0.282z" fill="#130912" data-fill-palette-color="primary"></path><path d="M206.872 47.803v0c-0.762-0.459-1.277-1.11-1.545-1.953-0.264-0.849-0.054-1.842 0.631-2.98v0c0.065-0.108 0.13-0.216 0.195-0.324 0.065-0.108 0.143-0.212 0.235-0.312v0c-1.451 0.917-2.774 1.442-3.97 1.574-1.192 0.127-2.204-0.059-3.035-0.559v0c-0.768-0.462-1.329-1.164-1.684-2.107-0.355-0.942-0.426-2.066-0.214-3.372 0.215-1.297 0.771-2.69 1.668-4.18v0c0.921-1.53 1.958-2.77 3.11-3.72 1.149-0.943 2.324-1.62 3.523-2.029 1.205-0.406 2.352-0.572 3.439-0.499 1.087 0.073 2.024 0.346 2.809 0.819v0c0.876 0.527 1.503 1.269 1.881 2.225 0.378 0.956 0.348 2.093-0.089 3.41v0c0.294-0.334 0.549-0.642 0.765-0.923 0.219-0.287 0.361-0.484 0.426-0.592v0c0.373-0.581 0.935-0.84 1.687-0.774 0.751 0.065 1.477 0.308 2.177 0.729v0c0.614 0.37 1.123 0.839 1.525 1.406 0.402 0.568 0.532 1.196 0.388 1.884v0l-0.05 0.238c-0.623 0.431-1.316 0.983-2.077 1.655-0.765 0.679-1.528 1.405-2.289 2.18-0.77 0.777-1.48 1.558-2.131 2.344-0.651 0.786-1.174 1.506-1.568 2.16v0c-0.435 0.722-0.658 1.266-0.668 1.632-0.011 0.365 0.092 0.613 0.308 0.743v0c0.375 0.226 0.874 0.17 1.496-0.169v0l0.179 0.282c-0.449 0.745-1.097 1.281-1.944 1.608-0.85 0.318-1.746 0.441-2.687 0.371-0.938-0.076-1.768-0.332-2.491-0.767zM204.028 40.418v0c0.569 0.342 1.507 0.213 2.814-0.387 1.301-0.604 2.776-1.708 4.423-3.312v0c0.162-0.166 0.322-0.329 0.481-0.49 0.153-0.164 0.292-0.324 0.417-0.481v0c0.143-1.022 0.122-1.818-0.063-2.386-0.176-0.571-0.448-0.967-0.818-1.19v0c-0.552-0.332-1.236-0.348-2.052-0.049-0.821 0.296-1.644 0.793-2.466 1.491-0.823 0.698-1.498 1.485-2.026 2.361v0c-0.722 1.2-1.125 2.178-1.208 2.934-0.083 0.756 0.083 1.259 0.498 1.509z" fill="#130912" data-fill-palette-color="primary"></path><path d="M220.725 58.651v0c-0.669-0.665-1.007-1.534-1.015-2.61-0.018-1.075 0.451-2.093 1.406-3.054v0c0.468-0.471 1.063-0.942 1.784-1.414 0.722-0.472 1.467-0.939 2.235-1.401 0.768-0.463 1.483-0.904 2.144-1.324 0.665-0.415 1.169-0.795 1.51-1.138v0c0.36-0.363 0.575-0.72 0.645-1.073 0.06-0.352-0.028-0.645-0.263-0.879v0c-0.311-0.309-0.825-0.46-1.544-0.453v0l-0.064-0.275c0.276-0.306 0.681-0.587 1.215-0.842 0.544-0.255 1.151-0.419 1.823-0.491 0.666-0.077 1.361-0.009 2.085 0.204 0.719 0.218 1.406 0.653 2.06 1.304v0c0.956 0.95 1.391 1.93 1.306 2.939-0.081 1.014-0.517 1.92-1.309 2.716v0c-0.29 0.292-0.599 0.547-0.927 0.763v0c0.943-0.186 1.978-0.286 3.105-0.298 1.127-0.013 2.219 0.127 3.276 0.419 1.057 0.302 1.949 0.813 2.674 1.534v0c0.848 0.842 1.158 1.689 0.93 2.539-0.232 0.846-0.753 1.676-1.562 2.491v0c-0.758 0.763-1.653 1.498-2.683 2.206-1.021 0.707-2.014 1.382-2.98 2.023-0.96 0.646-1.712 1.243-2.255 1.789v0c-0.721 0.725-0.874 1.294-0.459 1.706v0c0.217 0.215 0.475 0.337 0.776 0.364 0.296 0.023 0.535-0.002 0.718-0.073v0l0.106 0.274c-0.665 0.669-1.436 1.073-2.313 1.212-0.873 0.134-1.73 0.064-2.571-0.21-0.841-0.274-1.552-0.699-2.131-1.275v0c-0.706-0.702-1.09-1.569-1.149-2.602-0.055-1.028 0.468-2.095 1.567-3.203v0c0.646-0.65 1.433-1.272 2.361-1.866 0.928-0.585 1.825-1.149 2.692-1.692 0.862-0.547 1.518-1.047 1.967-1.499v0c0.271-0.273 0.435-0.537 0.49-0.79 0.056-0.254-0.044-0.507-0.298-0.76v0c-0.414-0.412-1.061-0.675-1.939-0.79-0.878-0.115-1.81-0.029-2.795 0.256-0.98 0.28-1.85 0.802-2.608 1.564v0c-0.487 0.49-0.896 1.019-1.227 1.589-0.332 0.569-0.757 1.115-1.277 1.638v0c-0.973 0.98-1.967 1.471-2.981 1.474-1.009 0.008-1.851-0.323-2.525-0.992z" fill="#130912" data-fill-palette-color="primary"></path><path d="M240.451 82.493v0c-0.894-1.43-1.325-2.84-1.293-4.231 0.037-1.394 0.423-2.668 1.157-3.823 0.743-1.153 1.72-2.108 2.931-2.865v0c1.149-0.718 2.436-1.213 3.863-1.486 1.427-0.273 2.89-0.28 4.392-0.02 1.505 0.265 2.933 0.841 4.285 1.726 1.355 0.891 2.54 2.147 3.553 3.769v0c1.003 1.605 1.429 2.994 1.278 4.169-0.153 1.184-0.609 2.013-1.369 2.488v0c-0.8 0.5-1.786 0.556-2.959 0.17-1.17-0.381-2.235-1.34-3.196-2.877v0c0.374-0.116 0.747-0.252 1.12-0.406 0.373-0.155 0.709-0.325 1.008-0.512v0c0.456-0.285 0.78-0.625 0.972-1.019 0.192-0.394 0.133-0.839-0.176-1.334v0c-0.285-0.456-0.791-0.809-1.519-1.059-0.731-0.256-1.61-0.309-2.638-0.161-1.025 0.139-2.123 0.575-3.293 1.307v0c-1.149 0.718-1.958 1.49-2.429 2.316-0.479 0.824-0.687 1.639-0.622 2.444 0.061 0.8 0.303 1.537 0.726 2.213v0c0.552 0.884 1.319 1.591 2.3 2.121 0.979 0.539 1.997 0.733 3.053 0.582v0l0.065 0.405c-1.126 0.704-2.242 1.049-3.346 1.034-1.111-0.011-2.171-0.26-3.181-0.748-1.006-0.483-1.914-1.102-2.723-1.858-0.806-0.764-1.46-1.546-1.959-2.345z" fill="#130912" data-fill-palette-color="primary"></path><path d="M251.416 105.209v0c-0.626-1.75-0.79-3.331-0.491-4.743 0.293-1.409 0.92-2.611 1.883-3.604 0.957-0.991 2.107-1.727 3.452-2.208v0c1.275-0.456 2.645-0.668 4.11-0.635 1.462 0.027 2.892 0.326 4.288 0.898 1.397 0.572 2.664 1.423 3.801 2.554 1.136 1.124 2.009 2.539 2.619 4.246v0c0.756 2.113 0.833 3.827 0.233 5.142-0.601 1.315-1.574 2.213-2.918 2.694v0c-1.157 0.414-2.332 0.489-3.527 0.225-1.188-0.266-2.26-0.799-3.216-1.599-0.948-0.796-1.638-1.798-2.07-3.004v0c-0.224-0.625-0.354-1.294-0.39-2.008-0.039-0.72 0.033-1.465 0.216-2.235v0c-1.445 0.651-2.372 1.47-2.782 2.455-0.409 0.986-0.428 1.997-0.056 3.035v0c0.257 0.719 0.653 1.392 1.187 2.019 0.539 0.618 1.139 1.154 1.803 1.608 0.663 0.454 1.308 0.759 1.935 0.915v0l-0.087 0.317c-1.25 0.447-2.409 0.569-3.476 0.366-1.061-0.206-2.019-0.628-2.876-1.266-0.852-0.647-1.584-1.422-2.196-2.325-0.608-0.911-1.089-1.86-1.442-2.847zM261.457 102.557v0c0.275 0.769 0.721 1.315 1.337 1.637 0.616 0.323 1.267 0.495 1.952 0.518 0.687 0.029 1.259-0.038 1.716-0.201v0c0.556-0.199 0.963-0.521 1.22-0.966 0.263-0.447 0.295-0.948 0.096-1.504v0c-0.154-0.431-0.481-0.851-0.979-1.258-0.496-0.401-1.196-0.672-2.1-0.814-0.902-0.136-2.049-0.021-3.442 0.343v0c-0.081 0.896-0.014 1.645 0.2 2.245z" fill="#130912" data-fill-palette-color="primary"></path><path d="M14.294 144.405c0-1.782 1.445-3.227 3.226-3.226 1.782 0 3.227 1.445 3.227 3.226 0 1.782-1.445 3.227-3.227 3.227-1.782 0-3.227-1.445-3.226-3.227z" fill="#130912" data-fill-palette-color="primary"></path><path d="M265.275 144.405c0-1.782 1.445-3.227 3.227-3.226 1.782 0 3.227 1.445 3.226 3.226 0 1.782-1.445 3.227-3.226 3.227-1.782 0-3.227-1.445-3.227-3.227z" fill="#130912" data-fill-palette-color="primary"></path></g><g id="text-1"><path d="M18.316 197.91v0c-0.318-0.874-0.52-1.916-0.608-3.128-0.084-1.22-0.156-2.497-0.218-3.831-0.061-1.334-0.225-2.628-0.49-3.881v0c-1.073-0.542-1.902-1.11-2.485-1.703-0.592-0.597-0.989-1.174-1.19-1.729v0c-0.257-0.705-0.266-1.373-0.029-2.003 0.235-0.636 0.629-1.193 1.183-1.67 0.554-0.477 1.171-0.839 1.851-1.087v0c0.699-0.254 1.41-0.368 2.133-0.342 0.723 0.027 1.381 0.232 1.974 0.618 0.595 0.391 1.042 0.999 1.341 1.822v0c0.061 0.168 0.118 0.353 0.169 0.553 0.045 0.203 0.083 0.422 0.113 0.659v0c1.572-0.049 3.276-0.21 5.113-0.483 1.837-0.273 3.616-0.606 5.338-0.998 1.722-0.393 3.188-0.81 4.399-1.251v0c0.487-0.177 0.825-0.325 1.015-0.444 0.188-0.125 0.368-0.289 0.541-0.493v0l0.093-0.066c0.884 0.003 1.666 0.267 2.343 0.79 0.684 0.521 1.162 1.156 1.435 1.905v0c0.3 0.824 0.25 1.608-0.15 2.355-0.398 0.752-1.286 1.379-2.665 1.881v0c-0.874 0.318-1.997 0.61-3.369 0.876-1.373 0.266-2.867 0.489-4.484 0.667-1.625 0.174-3.244 0.308-4.857 0.399-1.61 0.098-3.066 0.137-4.367 0.116v0c0.145 1.155 0.256 2.327 0.335 3.513 0.074 1.195 0.301 2.314 0.68 3.356v0c0.291 0.799 0.718 1.516 1.281 2.152 0.561 0.63 1.348 1.131 2.36 1.505v0c-0.141 0.602-0.46 1.125-0.956 1.566-0.499 0.436-1.075 0.773-1.731 1.011v0c-0.724 0.263-1.486 0.371-2.288 0.324-0.804-0.054-1.548-0.313-2.233-0.777-0.691-0.462-1.217-1.189-1.577-2.182z" fill="#130912" data-fill-palette-color="primary"></path><path d="M30.194 220.064v0c-1.035-1.568-1.577-3.076-1.625-4.524-0.047-1.457 0.281-2.787 0.982-3.989 0.707-1.207 1.662-2.207 2.864-3.001v0c1.141-0.754 2.433-1.292 3.874-1.615 1.44-0.314 2.913-0.36 4.421-0.137 1.511 0.228 2.958 0.756 4.34 1.585 1.387 0.835 2.583 2.014 3.589 3.538v0c1.251 1.895 1.737 3.559 1.458 4.993-0.27 1.435-1.006 2.55-2.208 3.343v0c-1.036 0.684-2.172 1.036-3.408 1.057-1.232 0.026-2.412-0.237-3.541-0.79-1.123-0.556-2.039-1.371-2.748-2.446v0c-0.369-0.56-0.66-1.187-0.873-1.882-0.212-0.695-0.32-1.443-0.324-2.244v0c-1.257 0.989-1.968 2.015-2.132 3.078-0.161 1.069 0.063 2.066 0.674 2.992v0c0.424 0.643 0.975 1.206 1.652 1.69 0.674 0.478 1.388 0.862 2.144 1.15 0.761 0.285 1.469 0.43 2.125 0.435v0l-0.018 0.334c-1.119 0.739-2.223 1.134-3.312 1.184-1.09 0.06-2.131-0.125-3.121-0.553-0.996-0.424-1.9-1.009-2.71-1.755-0.816-0.742-1.517-1.556-2.103-2.443zM39.399 215.062v0c0.454 0.687 1.023 1.115 1.707 1.284 0.681 0.163 1.361 0.176 2.041 0.037 0.68-0.139 1.225-0.343 1.635-0.615v0c0.493-0.326 0.813-0.739 0.959-1.241 0.155-0.5 0.07-0.997-0.256-1.49v0c-0.256-0.388-0.679-0.721-1.269-1-0.581-0.277-1.332-0.373-2.255-0.289-0.917 0.081-2.014 0.462-3.29 1.145v0c0.13 0.908 0.373 1.631 0.728 2.169z" fill="#130912" data-fill-palette-color="primary"></path><path d="M57.012 249.888v0c-0.661-0.615-1.079-1.311-1.253-2.089-0.174-0.778-0.192-1.593-0.054-2.443 0.147-0.851 0.386-1.712 0.715-2.585 0.335-0.867 0.661-1.701 0.98-2.502v0c0.536-1.26 0.994-2.376 1.371-3.348 0.373-0.967 0.618-1.855 0.734-2.663v0c-1.693 1.1-3.264 2.21-4.712 3.33-1.443 1.124-2.949 2.471-4.517 4.041v0c-0.639 0.005-1.249-0.105-1.83-0.327-0.581-0.223-1.091-0.538-1.529-0.945v0c-0.661-0.615-1.031-1.393-1.107-2.334-0.076-0.932 0.394-1.945 1.41-3.04v0c0.701-0.754 1.601-1.499 2.702-2.234 1.11-0.736 2.294-1.449 3.551-2.139 1.262-0.695 2.501-1.355 3.719-1.982 1.217-0.637 2.295-1.23 3.233-1.782 0.938-0.551 1.617-1.053 2.037-1.505v0c0.438-0.472 0.497-0.857 0.177-1.155v0c-0.36-0.334-1.044-0.471-2.052-0.411-1.012 0.065-2.231 0.333-3.656 0.803v0l-0.114-0.214c1.053-1.133 2.237-1.914 3.551-2.343 1.318-0.434 2.683-0.566 4.094-0.397 1.411 0.169 2.818 0.606 4.219 1.312 1.402 0.705 2.709 1.62 3.921 2.745v0c1.605 1.492 2.673 2.951 3.204 4.379 0.536 1.432 0.681 2.763 0.436 3.994-0.246 1.231-0.781 2.288-1.604 3.173v0c-0.845 0.909-1.901 1.582-3.167 2.019-1.271 0.441-2.594 0.558-3.969 0.35-1.379-0.203-2.686-0.792-3.92-1.766v0c0.114 0.668 0.095 1.366-0.057 2.095-0.142 0.729-0.334 1.525-0.575 2.389v0c-0.23 0.774-0.389 1.569-0.476 2.385-0.088 0.816 0.18 1.513 0.802 2.092v0c0.321 0.298 0.661 0.464 1.019 0.498 0.353 0.029 0.782-0.076 1.285-0.315v0l0.094 0.25c-0.17 0.368-0.362 0.697-0.577 0.987-0.219 0.295-0.433 0.554-0.641 0.777v0c-1.107 1.192-2.365 1.881-3.772 2.069-1.407 0.188-2.631-0.202-3.672-1.169zM63.341 232.969v0c0.681 0.633 1.416 1.026 2.207 1.181 0.795 0.149 1.543 0.12 2.244-0.09 0.702-0.209 1.272-0.549 1.711-1.021v0c0.542-0.584 0.8-1.305 0.773-2.163-0.031-0.854-0.548-1.746-1.55-2.678v0c-0.151-0.14-0.311-0.28-0.48-0.419-0.17-0.139-0.339-0.269-0.508-0.39v0c-0.103 0.149-0.21 0.285-0.323 0.406-0.118 0.126-0.176 0.19-0.176 0.19v0c-0.805 0.866-1.618 1.673-2.442 2.422-0.818 0.753-1.541 1.351-2.168 1.792v0c0.113 0.141 0.229 0.276 0.346 0.403 0.113 0.123 0.234 0.245 0.366 0.367z" fill="#130912" data-fill-palette-color="primary"></path><path d="M78.728 264.293v0c-1.702-0.914-2.927-2.009-3.674-3.285-0.75-1.284-1.089-2.631-1.018-4.04 0.071-1.409 0.449-2.751 1.134-4.026v0c0.647-1.205 1.512-2.289 2.595-3.253 1.092-0.966 2.33-1.714 3.715-2.244 1.379-0.533 2.845-0.771 4.397-0.713 1.552 0.057 3.123 0.513 4.714 1.368v0c1.702 0.914 2.916 2.015 3.642 3.301 0.735 1.284 1.064 2.636 0.986 4.057-0.077 1.421-0.465 2.78-1.162 4.079v0c-0.635 1.182-1.489 2.253-2.562 3.214-1.065 0.958-2.29 1.702-3.675 2.231-1.385 0.53-2.847 0.762-4.387 0.696-1.546-0.069-3.114-0.531-4.705-1.385zM81.204 261.892v0c0.614 0.33 1.297 0.286 2.049-0.131 0.749-0.412 1.488-1.059 2.218-1.941 0.736-0.879 1.378-1.83 1.929-2.853v0c0.487-0.907 0.862-1.809 1.126-2.707 0.264-0.898 0.363-1.693 0.297-2.384-0.063-0.697-0.369-1.193-0.919-1.489v0c-0.585-0.314-1.259-0.266-2.023 0.146-0.764 0.411-1.51 1.05-2.239 1.917-0.729 0.867-1.374 1.821-1.933 2.862v0c-0.49 0.912-0.867 1.818-1.131 2.717-0.261 0.892-0.36 1.687-0.297 2.384 0.072 0.694 0.38 1.187 0.923 1.479z" fill="#130912" data-fill-palette-color="primary"></path><path d="M112.905 255.861v0c-0.992-0.298-1.712-0.844-2.16-1.638-0.448-0.793-0.535-1.645-0.261-2.554v0c0.298-0.992 0.927-1.732 1.885-2.22 0.954-0.497 1.961-0.585 3.023-0.266v0c0.986 0.296 1.7 0.848 2.144 1.654 0.45 0.808 0.538 1.67 0.262 2.585v0c-0.296 0.986-0.923 1.719-1.879 2.202-0.948 0.478-1.953 0.557-3.014 0.237zM104.303 275.051v0c-0.966-0.291-1.729-0.891-2.287-1.801-0.558-0.91-0.611-2.118-0.158-3.625v0c0.26-0.865 0.618-1.638 1.072-2.319 0.463-0.686 0.957-1.338 1.483-1.956 0.521-0.627 1.002-1.245 1.442-1.855 0.44-0.61 0.759-1.245 0.958-1.906v0c0.18-0.598 0.209-1.053 0.089-1.367-0.119-0.32-0.315-0.521-0.588-0.603v0c-0.42-0.126-0.908 0.022-1.465 0.443v0l-0.214-0.22c0.4-0.961 0.969-1.712 1.707-2.253 0.74-0.547 1.56-0.9 2.461-1.059 0.894-0.161 1.726-0.126 2.496 0.106v0c0.935 0.281 1.658 0.828 2.169 1.641 0.511 0.813 0.562 1.899 0.153 3.259v0c-0.245 0.814-0.621 1.637-1.128 2.469-0.505 0.826-1.047 1.637-1.626 2.433-0.573 0.798-1.092 1.544-1.557 2.236-0.467 0.699-0.781 1.318-0.944 1.859v0c-0.142 0.47-0.15 0.832-0.025 1.084 0.125 0.253 0.299 0.412 0.522 0.48v0c0.223 0.067 0.459 0.065 0.709-0.006 0.252-0.077 0.455-0.186 0.608-0.326v0l0.234 0.153c-0.275 0.916-0.756 1.638-1.442 2.167-0.688 0.535-1.445 0.886-2.272 1.053-0.835 0.172-1.634 0.143-2.397-0.087z" fill="#130912" data-fill-palette-color="primary"></path><path d="M125.958 279.373v0c-0.919-0.081-1.719-0.541-2.399-1.38-0.68-0.833-0.942-2.136-0.786-3.909v0c0.127-1.442 0.42-2.842 0.879-4.201 0.452-1.353 0.953-2.726 1.501-4.118 0.555-1.384 1.045-2.828 1.47-4.33 0.432-1.502 0.669-3.107 0.713-4.816v0c-0.704 0.045-1.401 0.167-2.092 0.366-0.684 0.2-1.371 0.513-2.062 0.939v0c0.142-1.614 0.399-2.918 0.773-3.911 0.373-0.987 0.99-1.676 1.852-2.067 0.861-0.391 2.101-0.515 3.721-0.373v0c0.873 0.077 1.843 0.225 2.911 0.445 1.066 0.227 2.166 0.454 3.299 0.68 1.133 0.233 2.212 0.394 3.237 0.484v0c1.005 0.088 1.913 0.071 2.724-0.051 0.811-0.129 1.457-0.429 1.938-0.899v0c0.487 0.376 0.84 0.867 1.061 1.473 0.221 0.599 0.302 1.233 0.243 1.901v0c-0.061 0.694-0.282 1.355-0.664 1.981-0.375 0.627-0.915 1.123-1.62 1.487-0.705 0.365-1.597 0.5-2.675 0.405v0c-1.131-0.099-2.349-0.386-3.654-0.86-1.304-0.481-2.653-0.913-4.045-1.295v0c0.082 0.58 0.129 1.154 0.139 1.721 0.016 0.575-0.002 1.156-0.054 1.745v0c-0.056 0.642-0.139 1.274-0.246 1.898-0.101 0.624-0.234 1.266-0.399 1.925v0c0.567-0.23 1.244-0.427 2.031-0.592 0.794-0.164 1.601-0.286 2.422-0.367 0.821-0.088 1.552-0.104 2.194-0.047v0c0.41 0.036 0.767 0.107 1.071 0.214v0c0.211 0.558 0.282 1.225 0.214 1.998v0c-0.108 1.23-0.526 2.46-1.254 3.689v0l-0.288 0.095c-0.901-0.599-1.964-1.092-3.189-1.48-1.218-0.394-2.504-0.703-3.858-0.929v0c-0.387 1.446-0.763 2.916-1.127 4.41-0.358 1.495-0.607 3.039-0.747 4.634v0c-0.029 0.331-0.056 0.678-0.081 1.042-0.018 0.358-0.03 0.717-0.035 1.077v0c-0.922 0.779-1.961 1.117-3.118 1.016z" fill="#130912" data-fill-palette-color="primary"></path><path d="M157.524 258.958v0c-1.031 0.104-1.904-0.126-2.621-0.688-0.717-0.562-1.123-1.315-1.218-2.26v0c-0.104-1.031 0.194-1.955 0.893-2.772 0.691-0.823 1.589-1.291 2.692-1.401v0c1.024-0.103 1.895 0.133 2.613 0.708 0.725 0.574 1.135 1.337 1.231 2.289v0c0.103 1.024-0.195 1.941-0.895 2.752-0.693 0.804-1.592 1.261-2.695 1.372zM156.913 279.979v0c-1.004 0.101-1.938-0.162-2.802-0.79-0.864-0.627-1.374-1.724-1.531-3.289v0c-0.09-0.898-0.056-1.749 0.104-2.553 0.165-0.811 0.373-1.602 0.622-2.375 0.242-0.778 0.45-1.533 0.623-2.264 0.173-0.731 0.226-1.441 0.157-2.128v0c-0.062-0.621-0.209-1.053-0.441-1.297-0.232-0.25-0.49-0.361-0.774-0.333v0c-0.436 0.044-0.831 0.367-1.183 0.97v0l-0.283-0.122c0.002-1.041 0.241-1.953 0.716-2.734 0.475-0.788 1.098-1.428 1.87-1.92 0.765-0.491 1.547-0.776 2.346-0.856v0c0.971-0.098 1.848 0.131 2.631 0.687 0.783 0.555 1.246 1.54 1.388 2.953v0c0.085 0.846 0.052 1.75-0.098 2.713-0.151 0.956-0.342 1.913-0.573 2.87-0.224 0.957-0.419 1.844-0.583 2.661-0.164 0.824-0.218 1.517-0.162 2.078v0c0.049 0.489 0.18 0.826 0.392 1.012 0.212 0.186 0.434 0.267 0.665 0.243v0c0.231-0.023 0.449-0.115 0.653-0.275 0.203-0.167 0.349-0.345 0.437-0.535v0l0.276 0.053c0.096 0.951-0.073 1.802-0.505 2.553-0.431 0.757-0.997 1.371-1.696 1.842-0.706 0.478-1.455 0.757-2.249 0.836z" fill="#130912" data-fill-palette-color="primary"></path><path d="M178.739 275.611v0c-0.913 0.285-1.85 0.178-2.813-0.32-0.967-0.491-1.655-1.389-2.063-2.695v0c-0.2-0.64-0.341-1.392-0.424-2.257-0.078-0.873-0.143-1.76-0.195-2.662-0.052-0.902-0.108-1.747-0.167-2.536-0.061-0.795-0.163-1.424-0.308-1.886v0c-0.154-0.494-0.375-0.853-0.66-1.077-0.284-0.217-0.587-0.276-0.91-0.175v0c-0.418 0.131-0.795 0.516-1.131 1.157v0l-0.272-0.071c-0.148-0.385-0.209-0.881-0.183-1.487 0.034-0.602 0.175-1.22 0.422-1.854 0.249-0.627 0.639-1.215 1.17-1.764 0.533-0.542 1.24-0.951 2.121-1.226v0c1.305-0.408 2.389-0.336 3.25 0.215 0.863 0.558 1.464 1.379 1.803 2.463v0c0.123 0.393 0.207 0.784 0.252 1.173v0c0.276-0.921 0.675-1.891 1.198-2.91 0.519-1.011 1.16-1.921 1.923-2.729 0.758-0.801 1.632-1.355 2.62-1.665v0c1.153-0.36 2.054-0.239 2.702 0.366 0.65 0.611 1.148 1.471 1.495 2.58v0c0.323 1.033 0.558 2.174 0.704 3.421 0.147 1.248 0.28 2.455 0.402 3.621 0.121 1.166 0.297 2.119 0.529 2.861v0c0.307 0.982 0.746 1.384 1.316 1.206v0c0.292-0.091 0.519-0.263 0.683-0.517 0.164-0.253 0.257-0.48 0.278-0.681v0l0.292 0.034c0.285 0.913 0.282 1.793-0.009 2.642-0.287 0.841-0.754 1.571-1.402 2.192-0.64 0.624-1.352 1.059-2.138 1.304v0c-0.963 0.301-1.916 0.234-2.859-0.202-0.949-0.434-1.659-1.401-2.129-2.903v0c-0.277-0.887-0.46-1.884-0.548-2.99-0.088-1.106-0.171-2.173-0.249-3.199-0.079-1.033-0.215-1.856-0.407-2.471v0c-0.115-0.368-0.272-0.635-0.47-0.803-0.205-0.166-0.478-0.195-0.82-0.087v0c-0.564 0.176-1.105 0.627-1.623 1.352-0.516 0.732-0.88 1.604-1.092 2.616-0.212 1.012-0.157 2.035 0.166 3.068v0c0.208 0.665 0.49 1.28 0.847 1.843 0.351 0.565 0.637 1.203 0.859 1.912v0c0.416 1.331 0.386 2.45-0.088 3.357-0.469 0.905-1.159 1.5-2.072 1.784z" fill="#130912" data-fill-palette-color="primary"></path><path d="M217.292 258.354v0c-0.774 0.465-1.6 0.617-2.479 0.456-0.879-0.161-1.664-0.816-2.356-1.966v0c-0.068-0.114-0.135-0.225-0.2-0.332-0.065-0.108-0.12-0.226-0.166-0.354v0c0.137 1.723-0.02 3.15-0.471 4.281-0.451 1.131-1.095 1.948-1.931 2.451v0c-0.774 0.465-1.669 0.632-2.687 0.499-1.008-0.13-2.04-0.598-3.097-1.403-1.061-0.811-2.043-1.968-2.946-3.47v0c-0.927-1.542-1.54-3.052-1.841-4.529-0.3-1.478-0.348-2.847-0.145-4.108 0.199-1.266 0.592-2.366 1.177-3.299 0.582-0.939 1.269-1.646 2.06-2.122v0c0.888-0.534 1.847-0.742 2.878-0.626 1.031 0.116 2.032 0.68 3.004 1.692v0c-0.158-0.417-0.314-0.787-0.471-1.111-0.154-0.334-0.264-0.554-0.328-0.663v0c-0.336-0.611-0.299-1.238 0.112-1.88 0.415-0.637 0.975-1.167 1.681-1.592v0c0.62-0.373 1.28-0.603 1.979-0.69 0.696-0.093 1.316 0.088 1.861 0.543v0l0.191 0.164c0.092 0.758 0.258 1.634 0.5 2.628 0.239 1.003 0.523 2.029 0.851 3.079 0.329 1.05 0.69 2.049 1.082 2.998 0.396 0.955 0.792 1.763 1.19 2.423v0c0.438 0.728 0.817 1.186 1.138 1.372 0.318 0.181 0.588 0.204 0.81 0.071v0c0.376-0.226 0.558-0.696 0.547-1.409v0l0.347-0.023c0.452 0.751 0.622 1.582 0.511 2.493-0.12 0.909-0.435 1.764-0.944 2.567-0.509 0.802-1.128 1.422-1.857 1.86zM209.359 257.394v0c0.575-0.346 0.901-1.239 0.98-2.681 0.081-1.451-0.204-3.29-0.854-5.518v0c-0.074-0.227-0.148-0.446-0.221-0.657-0.067-0.215-0.143-0.418-0.226-0.608v0c-0.842-0.602-1.561-0.96-2.156-1.074-0.592-0.109-1.076-0.05-1.452 0.175v0c-0.552 0.332-0.888 0.933-1.008 1.803-0.126 0.873-0.071 1.84 0.164 2.9 0.232 1.069 0.613 2.045 1.143 2.927v0c0.732 1.218 1.415 2.039 2.05 2.463 0.632 0.433 1.159 0.523 1.58 0.27z" fill="#130912" data-fill-palette-color="primary"></path><path d="M234.807 244.488v0c-0.679 0.674-1.56 1.011-2.645 1.012-1.085 0.01-2.109-0.47-3.072-1.441v0c-0.472-0.476-0.944-1.079-1.416-1.809-0.471-0.739-0.938-1.496-1.4-2.272-0.462-0.776-0.901-1.501-1.316-2.174-0.42-0.678-0.801-1.188-1.142-1.533v0c-0.365-0.368-0.726-0.585-1.082-0.652-0.352-0.062-0.648 0.026-0.889 0.265v0c-0.311 0.309-0.468 0.825-0.47 1.547v0l-0.275 0.063c-0.309-0.273-0.591-0.685-0.848-1.236-0.247-0.55-0.407-1.163-0.479-1.84-0.068-0.672 0.007-1.373 0.226-2.105 0.223-0.727 0.663-1.415 1.318-2.065v0c0.971-0.964 1.965-1.399 2.984-1.306 1.023 0.098 1.935 0.549 2.734 1.355v0c0.29 0.292 0.545 0.601 0.764 0.926v0c-0.18-0.944-0.272-1.989-0.277-3.135-0.005-1.136 0.144-2.239 0.449-3.309 0.304-1.06 0.824-1.955 1.559-2.684v0c0.858-0.851 1.713-1.158 2.567-0.92 0.858 0.243 1.697 0.776 2.515 1.601v0c0.762 0.768 1.496 1.672 2.202 2.712 0.705 1.04 1.38 2.05 2.024 3.029 0.644 0.979 1.24 1.744 1.787 2.295v0c0.725 0.73 1.3 0.885 1.724 0.464v0c0.217-0.215 0.34-0.473 0.369-0.773 0.029-0.3 0.007-0.545-0.068-0.733v0l0.275-0.104c0.674 0.679 1.077 1.462 1.21 2.349 0.133 0.878 0.055 1.742-0.235 2.591-0.28 0.849-0.712 1.563-1.297 2.143v0c-0.716 0.711-1.593 1.09-2.631 1.138-1.042 0.052-2.118-0.48-3.226-1.596v0c-0.655-0.66-1.276-1.46-1.865-2.401-0.588-0.941-1.153-1.849-1.694-2.725-0.546-0.88-1.046-1.548-1.5-2.006v0c-0.271-0.273-0.534-0.439-0.787-0.495-0.258-0.053-0.514 0.047-0.768 0.3v0c-0.419 0.416-0.692 1.066-0.817 1.947-0.121 0.887-0.042 1.829 0.236 2.825 0.278 0.996 0.798 1.879 1.56 2.647v0c0.491 0.495 1.025 0.91 1.601 1.245 0.572 0.34 1.119 0.774 1.644 1.302v0c0.982 0.99 1.472 1.996 1.467 3.02 0.001 1.019-0.338 1.865-1.016 2.538z" fill="#130912" data-fill-palette-color="primary"></path><path d="M257.699 217.199v0c-0.902 1.441-1.991 2.455-3.267 3.043-1.282 0.584-2.609 0.796-3.981 0.634-1.372-0.161-2.671-0.626-3.897-1.393v0c-1.159-0.726-2.18-1.673-3.061-2.844-0.872-1.172-1.522-2.499-1.95-3.981-0.424-1.487-0.533-3.04-0.328-4.658 0.206-1.618 0.821-3.246 1.846-4.884v0c1.014-1.621 2.092-2.623 3.233-3.005 1.131-0.381 2.08-0.332 2.845 0.147v0c0.81 0.507 1.302 1.375 1.473 2.602 0.174 1.237-0.225 2.632-1.198 4.185v0c-0.276-0.298-0.567-0.578-0.872-0.84-0.302-0.268-0.606-0.497-0.91-0.686v0c-0.462-0.289-0.912-0.433-1.35-0.434-0.438 0-0.814 0.25-1.128 0.751v0c-0.289 0.462-0.388 1.077-0.297 1.846 0.096 0.773 0.436 1.593 1.021 2.461 0.579 0.864 1.46 1.666 2.642 2.405v0c1.159 0.726 2.219 1.122 3.179 1.19 0.96 0.068 1.791-0.101 2.492-0.508 0.699-0.416 1.262-0.965 1.688-1.646v0c0.56-0.895 0.863-1.904 0.907-3.027 0.054-1.125-0.219-2.134-0.819-3.027v0l0.341-0.245c1.137 0.712 1.943 1.576 2.418 2.594 0.473 1.009 0.714 2.076 0.722 3.201 0.011 1.135-0.153 2.234-0.49 3.3-0.332 1.069-0.752 2.009-1.259 2.819z" fill="#130912" data-fill-palette-color="primary"></path><path d="M270.579 190.577v0c-0.634 1.769-1.516 3.106-2.646 4.013-1.138 0.911-2.399 1.446-3.782 1.606-1.39 0.157-2.763-0.007-4.119-0.494v0c-1.287-0.462-2.493-1.173-3.615-2.133-1.114-0.964-2.034-2.116-2.76-3.455-0.723-1.346-1.168-2.821-1.333-4.425-0.163-1.61 0.064-3.275 0.68-4.994v0c0.767-2.137 1.807-3.524 3.122-4.159 1.31-0.644 2.644-0.723 4-0.237v0c1.169 0.419 2.131 1.117 2.888 2.094 0.759 0.971 1.256 2.073 1.491 3.307 0.228 1.232 0.125 2.454-0.31 3.666v0c-0.226 0.631-0.554 1.24-0.983 1.827-0.429 0.587-0.963 1.122-1.603 1.605v0c1.545 0.413 2.792 0.367 3.743-0.139 0.953-0.512 1.616-1.29 1.99-2.333v0c0.26-0.725 0.381-1.503 0.362-2.336-0.021-0.826-0.143-1.628-0.364-2.405-0.228-0.78-0.537-1.434-0.926-1.962v0l0.278-0.186c1.262 0.453 2.24 1.1 2.933 1.941 0.701 0.837 1.178 1.78 1.429 2.83 0.258 1.052 0.331 2.126 0.22 3.222-0.105 1.098-0.336 2.147-0.695 3.147zM261.057 186.209v0c0.278-0.775 0.279-1.487 0.004-2.136-0.277-0.643-0.675-1.195-1.194-1.656-0.519-0.461-1.009-0.775-1.472-0.941v0c-0.556-0.2-1.079-0.207-1.568-0.023-0.493 0.176-0.84 0.542-1.039 1.098v0c-0.157 0.437-0.17 0.976-0.04 1.615 0.126 0.631 0.5 1.29 1.121 1.979 0.614 0.686 1.577 1.335 2.888 1.946v0c0.649-0.649 1.082-1.276 1.3-1.883z" fill="#130912" data-fill-palette-color="primary"></path></g></svg></g></svg></g></svg></g><g></g></svg></g><defs></defs></svg><rect width="280" height="280" fill="none" stroke="none" visibility="hidden"></rect></g></svg></g></svg>